<svg width="64" height="36" viewBox="0 0 64 36" fill="none" xmlns="http://www.w3.org/2000/svg">
<path d="M50 20H14C12.88 20 12 19.12 12 18C12 16.88 12.88 16 14 16H50C51.12 16 52 16.88 52 18C52 19.12 51.12 20 50 20Z" fill="#964602"/>
<path d="M24 34C23.7377 34.0032 23.4776 33.9515 23.2365 33.8481C22.9954 33.7448 22.7786 33.5921 22.6 33.4L8.6 19.4C7.8 18.6 7.8 17.36 8.6 16.56L22.6 2.6C23.4 1.8 24.64 1.8 25.44 2.6C26.24 3.4 26.24 4.64 25.44 5.44L12.84 18.04L25.44 30.64C26.24 31.44 26.24 32.68 25.44 33.48C25.04 33.88 24.52 34.08 24.04 34.08L24 34Z" fill="#964602"/>
</svg>
