<svg width="64" height="36" viewBox="0 0 64 36" fill="none" xmlns="http://www.w3.org/2000/svg">
<path d="M50 20H14C12.88 20 12 19.12 12 18C12 16.88 12.88 16 14 16H50C51.12 16 52 16.88 52 18C52 19.12 51.12 20 50 20Z" fill="#964602"/>
<path d="M40 34C39.7377 34.0032 39.4776 33.9515 39.2365 33.8482C38.9954 33.7448 38.7786 33.5922 38.6 33.4C37.8 32.6 37.8 31.36 38.6 30.56L51.2 17.96L38.6 5.36004C37.8 4.56004 37.8 3.32004 38.6 2.52004C39.4 1.72004 40.64 1.72004 41.44 2.52004L55.44 16.52C56.24 17.32 56.24 18.56 55.44 19.36L41.44 33.36C41.04 33.76 40.52 33.96 40.04 33.96L40 34Z" fill="#964602"/>
</svg>
